# xmcd
#
# Track frame offsets: 
#        150
#        21597
#        42803
#        72282
#        100697
#        119425
#        134187
#        160107
#        183639
#        206868
#        235604
#        257193
#
# Disc length: 3784 seconds
#
# Revision: 0
# Processed by: cddbd v1.5.2PL0 Copyright (c) Steve Scherf et al.
# Submitted via: ExactAudioCopy v0.99pb5
#
DISCID=b20ec60c
DTITLE=Walter Trout - Common Ground
DYEAR=2010
DGENRE=Blues
TTITLE0=May Be A Fool
TTITLE1=Open Book
TTITLE2=Her Other Man
TTITLE3=Common Ground
TTITLE4=Danger Zone
TTITLE5=Hudson Had Help
TTITLE6=Loaded Gun
TTITLE7=Song For My Guitar
TTITLE8=Eyes Of A Child
TTITLE9=No Regrets
TTITLE10=Wrapped Up In The Blues
TTITLE11=Excess Baggage
EXTD=
EXTT0=
EXTT1=
EXTT2=
EXTT3=
EXTT4=
EXTT5=
EXTT6=
EXTT7=
EXTT8=
EXTT9=
EXTT10=
EXTT11=
PLAYORDER=
